<svg width="500" height="500" viewBox="0 0 500 500" fill="none" xmlns="http://www.w3.org/2000/svg">
<path d="M391.804 142.96C424.767 335.561 332.105 478.57 251.051 490C152.744 480.273 32.613 250.005 151.532 10C161.246 10.6074 220.821 80.2989 229.429 135.809C234.825 134.41 267.674 134.815 272.274 136.205C286.296 69.7067 342.253 10.9019 350.967 10.9019C371.483 56.7034 384.62 101.014 391.813 142.95L391.804 142.96ZM250.325 304.466C355.355 304.466 388.964 253.879 379.976 209.881C379.188 205.961 377.109 201.912 374.915 206.154C348.906 251.238 288.95 267.085 250.316 268.189C211.682 267.085 151.727 251.238 125.717 206.154C123.532 201.921 121.444 205.97 120.648 209.881C111.668 253.879 145.278 304.466 250.316 304.466H250.325ZM372.695 185.246C386.779 122.585 355.47 46.3044 342.253 46.0651C329.044 45.8166 288.897 126.671 286.252 140.199C283.598 153.736 295.807 154.362 299.956 146.144C304.105 137.926 331.442 98.2624 339.209 102.523C358.044 112.858 362.043 156.662 358.363 187.951C357.292 196.997 369.342 200.246 372.704 185.246H372.695ZM359.186 321.896C361.247 319.199 356.841 314.607 354.143 317.368C338.396 339.187 347.897 376.025 321.56 422.048C307.334 445.478 285.208 457.432 251.121 434.425C250.882 434.26 250.582 434.251 250.334 434.398C210.435 458.49 193.033 448.146 173.968 408.179C155.673 369.841 169.943 361.55 149.657 319.908C146.304 313.172 139.996 317.672 142.942 321.307C147.976 328.098 148.905 327.482 153.576 348.841C158.238 370.219 155.673 399.842 183.08 433.68C209.807 466.671 238.665 445.68 249.839 439.1C250.361 438.797 251.263 438.686 251.794 439.008C263.259 445.809 295.179 468.475 322.047 428.895C345.075 395.673 347.304 363.151 348.428 351.16C349.543 339.178 357.036 324.739 359.203 321.886L359.186 321.896ZM251.404 423.603C254.89 414.713 277.034 400.366 277.034 390.694C277.025 382.338 225.766 380.148 225.766 392.287C226.005 398.001 248.388 415.422 251.396 423.594C251.44 423.686 251.396 423.714 251.396 423.594L251.404 423.603ZM199.341 146.144C203.49 154.352 215.69 153.736 213.045 140.199C210.39 126.671 170.235 45.8166 157.026 46.0651C143.818 46.3136 112.518 122.594 126.584 185.246C129.964 200.246 141.995 196.997 140.934 187.951C137.254 156.662 141.243 112.858 160.07 102.523C167.846 98.2624 195.174 137.926 199.332 146.144H199.341Z" fill="#FBB5CF"/>
<path d="M379.976 209.881C388.964 253.879 355.355 304.466 250.325 304.466C145.295 304.466 111.686 253.879 120.657 209.881C121.453 205.961 123.541 201.912 125.726 206.154C151.736 251.238 211.691 267.085 250.325 268.189C288.959 267.085 348.915 251.238 374.924 206.154C377.109 201.921 379.197 205.97 379.985 209.881H379.976ZM375.446 225.526C375.659 222.544 374.473 223.74 373.553 225.093C338.272 279.812 274.424 278.699 250.945 278.699C227.465 278.699 164.051 279.812 128.769 225.093C127.849 223.74 126.655 222.544 126.876 225.526C127.336 231.922 145.517 296.957 251.405 296.957C357.292 296.957 374.986 231.912 375.446 225.526Z" fill="#FA69A1"/>
<path d="M373.553 225.093C374.473 223.74 375.658 222.544 375.446 225.526C374.986 231.922 357.275 296.957 251.404 296.957C145.534 296.957 127.336 231.912 126.876 225.526C126.655 222.544 127.849 223.74 128.769 225.093C164.051 279.812 227.474 278.699 250.944 278.699C274.415 278.699 338.272 279.812 373.553 225.093Z" fill="#3A2747"/>
<path d="M342.253 46.0651C355.479 46.3136 386.779 122.594 372.695 185.246C369.333 200.246 357.284 196.998 358.354 187.951C362.034 156.662 358.036 112.858 339.201 102.523C331.433 98.2625 304.096 137.926 299.947 146.144C295.798 154.362 283.58 153.736 286.243 140.199C288.889 126.671 329.036 45.8167 342.244 46.0651H342.253Z" fill="#FA69A1"/>
<path d="M354.143 317.368C356.85 314.607 361.247 319.199 359.186 321.896C357.018 324.748 349.525 339.187 348.41 351.169C347.278 363.16 345.057 395.682 322.029 428.904C295.161 468.484 263.25 445.818 251.776 439.017C251.245 438.705 250.343 438.806 249.821 439.109C238.647 445.689 209.789 466.681 183.063 433.689C155.655 399.842 158.221 370.219 153.558 348.85C148.887 327.491 147.958 328.107 142.924 321.316C139.987 317.681 146.286 313.19 149.639 319.917C169.934 361.55 155.664 369.85 173.95 408.189C193.015 448.156 210.417 458.509 250.316 434.407C250.564 434.25 250.865 434.269 251.104 434.435C285.191 457.441 307.317 445.487 321.542 422.057C347.879 376.035 338.378 339.197 354.125 317.377L354.143 317.368Z" fill="#851C4D"/>
<path d="M277.034 390.694C277.034 400.357 254.881 414.713 251.404 423.603C248.396 415.422 226.005 398.001 225.775 392.296C225.775 380.157 277.025 382.348 277.043 390.704L277.034 390.694ZM259.888 391.596C259.888 390.05 255.934 388.79 251.05 388.79C246.167 388.79 242.212 390.041 242.212 391.596C242.212 393.152 246.167 394.403 251.05 394.403C255.934 394.403 259.888 393.152 259.888 391.596Z" fill="#3A2747"/>
<path d="M251.051 394.403C255.932 394.403 259.889 393.146 259.889 391.596C259.889 390.046 255.932 388.79 251.051 388.79C246.169 388.79 242.213 390.046 242.213 391.596C242.213 393.146 246.169 394.403 251.051 394.403Z" fill="#FBB5CF"/>
<path d="M251.404 423.603C251.449 423.695 251.404 423.723 251.404 423.603Z" fill="#3A2747"/>
<path d="M213.045 140.199C215.69 153.736 203.49 154.362 199.341 146.144C195.174 137.935 167.855 98.2625 160.078 102.523C141.243 112.858 137.262 156.662 140.943 187.951C142.004 196.998 129.964 200.246 126.593 185.246C112.527 122.585 143.827 46.3044 157.035 46.0651C170.243 45.8167 210.39 126.671 213.053 140.199H213.045Z" fill="#FA69A1"/>
</svg>
