<?xml version="1.0" encoding="UTF-8"?><svg id="a" xmlns="http://www.w3.org/2000/svg" viewBox="0 0 999.15 852.93"><defs><style>.b{fill:#fa69a1;}.c{fill:#fbb5cf;}.d{fill:#3a2747;}.e{fill:#851c4d;}</style></defs><path class="c" d="M658.67,440.06c37.26,209.29-67.48,364.69-159.1,377.11-111.12-10.57-246.91-260.79-112.49-521.59,10.98.66,78.32,76.39,88.05,136.71,6.1-1.52,43.23-1.08,48.43.43,15.85-72.26,79.1-136.16,88.95-136.16,23.19,49.77,38.04,97.92,46.17,143.49ZM498.75,615.56c118.72,0,156.71-54.97,146.55-102.78-.89-4.26-3.24-8.66-5.72-4.05-29.4,48.99-97.17,66.21-140.84,67.41-43.67-1.2-111.44-18.42-140.84-67.41-2.47-4.6-4.83-.2-5.73,4.05-10.15,47.81,27.84,102.78,146.57,102.78ZM637.07,486.01c15.92-68.09-19.47-150.98-34.41-151.24-14.93-.27-60.31,87.59-63.3,102.29-3,14.71,10.8,15.39,15.49,6.46s35.59-52.03,44.37-47.4c21.29,11.23,25.81,58.83,21.65,92.83-1.21,9.83,12.41,13.36,16.21-2.94ZM621.8,634.5c2.33-2.93-2.65-7.92-5.7-4.92-17.8,23.71-7.06,63.74-36.83,113.75-16.08,25.46-41.09,38.45-79.62,13.45-.27-.18-.61-.19-.89-.03-45.1,26.18-64.77,14.94-86.32-28.49-20.68-41.66-4.55-50.67-27.48-95.92-3.79-7.32-10.92-2.43-7.59,1.52,5.69,7.38,6.74,6.71,12.02,29.92,5.27,23.23,2.37,55.42,33.35,92.19,30.21,35.85,62.83,13.04,75.46,5.89.59-.33,1.61-.45,2.21-.1,12.96,7.39,49.04,32.02,79.41-10.99,26.03-36.1,28.55-71.44,29.82-84.47,1.26-13.02,9.73-28.71,12.18-31.81ZM499.97,745.02c3.94-9.66,28.97-25.25,28.97-35.76-.01-9.08-57.95-11.46-57.95,1.73.27,6.21,25.57,25.14,28.97,34.02,0,.13.05.1,0,0ZM441.12,443.52c4.69,8.92,18.48,8.25,15.49-6.46-3-14.7-48.39-102.56-63.32-102.29-14.93.27-50.31,83.16-34.41,151.24,3.82,16.3,17.42,12.77,16.22,2.94-4.16-34,.35-81.6,21.63-92.83,8.79-4.63,39.68,38.47,44.38,47.4Z"/><path class="b" d="M645.3,512.78c10.16,47.81-27.83,102.78-146.55,102.78s-156.71-54.97-146.57-102.78c.9-4.26,3.26-8.66,5.73-4.05,29.4,48.99,97.17,66.21,140.84,67.41,43.67-1.2,111.44-18.42,140.84-67.41,2.47-4.6,4.83-.2,5.72,4.05ZM640.18,529.78c.24-3.24-1.1-1.94-2.14-.47-39.88,59.46-112.05,58.25-138.59,58.25s-98.22,1.21-138.1-58.25c-1.04-1.47-2.39-2.77-2.14.47.52,6.95,21.07,77.62,140.76,77.62s139.69-70.68,140.21-77.62Z"/><path class="d" d="M638.04,529.31c1.04-1.47,2.38-2.77,2.14.47-.52,6.95-20.54,77.62-140.21,77.62s-140.24-70.68-140.76-77.62c-.25-3.24,1.1-1.94,2.14-.47,39.88,59.46,111.57,58.25,138.1,58.25s98.71,1.21,138.59-58.25Z"/><path class="b" d="M602.66,334.77c14.95.27,50.33,83.16,34.41,151.24-3.8,16.3-17.42,12.77-16.21,2.94,4.16-34-.36-81.6-21.65-92.83-8.78-4.63-39.68,38.47-44.37,47.4s-18.5,8.25-15.49-6.46c2.99-14.7,48.37-102.56,63.3-102.29Z"/><path class="e" d="M616.1,629.58c3.06-3,8.03,1.99,5.7,4.92-2.45,3.1-10.92,18.79-12.18,31.81-1.28,13.03-3.79,48.37-29.82,84.47-30.37,43.01-66.44,18.38-79.41,10.99-.6-.34-1.62-.23-2.21.1-12.63,7.15-45.25,29.96-75.46-5.89-30.98-36.78-28.08-68.97-33.35-92.19-5.28-23.21-6.33-22.54-12.02-29.92-3.32-3.95,3.8-8.83,7.59-1.52,22.94,45.24,6.81,54.26,27.48,95.92,21.55,43.43,41.22,54.68,86.32,28.49.28-.17.62-.15.89.03,38.53,25,63.54,12.01,79.62-13.45,29.77-50.01,19.03-90.04,36.83-113.75Z"/><path class="d" d="M528.94,709.26c0,10.5-25.04,26.1-28.97,35.76-3.4-8.89-28.71-27.82-28.97-34.02,0-13.19,57.93-10.81,57.95-1.73ZM509.56,710.24c0-1.68-4.47-3.05-9.99-3.05s-9.99,1.36-9.99,3.05,4.47,3.05,9.99,3.05,9.99-1.36,9.99-3.05Z"/><ellipse class="c" cx="499.57" cy="710.24" rx="9.99" ry="3.05"/><path class="d" d="M499.97,745.02c.05.1,0,.13,0,0h0Z"/><path class="b" d="M456.61,437.06c2.99,14.71-10.8,15.39-15.49,6.46-4.71-8.92-35.59-52.03-44.38-47.4-21.29,11.23-25.79,58.83-21.63,92.83,1.2,9.83-12.41,13.36-16.22-2.94-15.9-68.09,19.48-150.98,34.41-151.24,14.93-.27,60.31,87.59,63.32,102.29Z"/></svg>